<?xml version="1.0" encoding="utf-8"?>
<!-- Generator: Adobe Illustrator 24.0.1, SVG Export Plug-In . SVG Version: 6.00 Build 0)  -->
<svg version="1.1" id="Capa_1" xmlns="http://www.w3.org/2000/svg" xmlns:xlink="http://www.w3.org/1999/xlink" x="0px" y="0px"
	 viewBox="0 0 757 300" style="enable-background:new 0 0 757 300;" xml:space="preserve">
<g id="XMLID_7336_">
	<g id="XMLID_7338_">
		<g id="XMLID_1298_">
			<path id="XMLID_1304_" d="M230.7,236.4h7.8c3.2,0,6.1,0.6,8.4,1.9c2.4,1.3,4.1,3.1,5.4,5.5c1.2,2.4,1.9,5.2,1.9,8.5
				c0,5-1.4,8.8-4.1,11.6c-2.8,2.8-6.6,4.2-11.5,4.2h-7.8V236.4z M238.4,264.9c3.8,0,6.7-1,8.9-3.1c2.1-2.1,3.2-5.2,3.2-9.5
				c0-4.3-1.1-7.5-3.2-9.6c-2.1-2.1-5.1-3.1-8.9-3.1h-4.3v25.3H238.4z"/>
			<path id="XMLID_1299_" d="M238.5,268.2h-8v-32h8c3.3,0,6.1,0.6,8.5,1.9c2.4,1.3,4.2,3.1,5.5,5.5c1.2,2.4,1.9,5.3,1.9,8.6
				c0,5-1.4,8.9-4.2,11.7C247.4,266.8,243.5,268.2,238.5,268.2z M230.8,267.9h7.7c4.9,0,8.7-1.4,11.4-4.1c2.7-2.7,4.1-6.6,4.1-11.5
				c0-3.3-0.6-6.1-1.8-8.5c-1.2-2.3-3-4.2-5.3-5.4c-2.3-1.2-5.1-1.9-8.3-1.9h-7.7V267.9z M238.4,265.1H234v-25.6h4.4
				c3.8,0,6.8,1.1,9,3.2c2.2,2.1,3.2,5.4,3.2,9.7c0,4.3-1.1,7.5-3.2,9.6C245.3,264,242.2,265.1,238.4,265.1z M234.3,264.8h4.1
				c3.7,0,6.7-1,8.8-3.1c2.1-2,3.1-5.2,3.1-9.4c0-4.2-1.1-7.4-3.1-9.4c-2.1-2-5-3.1-8.8-3.1h-4.1V264.8z"/>
		</g>
		<g id="XMLID_1289_">
			<path id="XMLID_1295_" d="M318.9,247.1c1.6,1,2.8,2.3,3.7,3.9c0.9,1.7,1.3,3.5,1.3,5.5c0,0.6,0,1-0.1,1.3H306
				c0.1,2.2,0.9,4.1,2.2,5.7c1.3,1.6,3.1,2.4,5.4,2.4c1.9,0,3.4-0.3,4.6-1c1.2-0.7,2.2-1.7,2.9-2.9l2.5,1.7c-1,1.6-2.4,2.9-4,3.8
				c-1.7,0.9-3.6,1.4-5.9,1.4c-2.1,0-4-0.5-5.6-1.5c-1.6-1-2.9-2.4-3.9-4.1c-0.9-1.8-1.4-3.8-1.4-6c0-2.2,0.5-4.2,1.4-6
				c0.9-1.8,2.2-3.1,3.8-4.1c1.6-1,3.5-1.5,5.5-1.5C315.5,245.6,317.3,246.1,318.9,247.1z M320.8,255.3c-0.3-2.3-1.1-4-2.3-5.1
				c-1.2-1.1-2.9-1.7-4.9-1.7c-2,0-3.7,0.6-4.9,1.9c-1.3,1.3-2.1,2.9-2.4,4.8H320.8z"/>
			<path id="XMLID_1290_" d="M313.7,269c-2.1,0-4-0.5-5.7-1.5c-1.7-1-3-2.4-3.9-4.2c-0.9-1.8-1.4-3.8-1.4-6.1c0-2.2,0.5-4.3,1.4-6.1
				c0.9-1.8,2.2-3.2,3.9-4.2c1.6-1,3.5-1.5,5.6-1.5c2,0,3.8,0.5,5.4,1.5l0,0c1.6,1,2.9,2.3,3.8,4c0.9,1.7,1.4,3.6,1.4,5.6
				c0,0.5,0,1,0,1.4l0,0.1h-17.8c0.2,2.1,0.9,3.9,2.1,5.4c1.3,1.6,3,2.3,5.3,2.3c1.9,0,3.3-0.3,4.5-1c1.2-0.7,2.2-1.6,2.9-2.8
				l0.1-0.1l0.1,0.1l2.6,1.8l-0.1,0.1c-1,1.6-2.4,2.9-4.1,3.8C318,268.5,316,269,313.7,269z M313.6,245.8c-2,0-3.9,0.5-5.5,1.5
				c-1.6,1-2.9,2.3-3.7,4.1c-0.9,1.7-1.4,3.7-1.4,5.9c0,2.2,0.5,4.2,1.4,5.9c0.9,1.7,2.2,3.1,3.8,4.1c1.6,1,3.5,1.5,5.5,1.5
				c2.2,0,4.2-0.5,5.9-1.4c1.6-0.9,2.9-2.1,3.9-3.6l-2.2-1.5c-0.7,1.2-1.7,2.1-2.9,2.8c-1.2,0.7-2.8,1.1-4.7,1.1
				c-2.3,0-4.2-0.8-5.6-2.4c-1.3-1.6-2.1-3.5-2.2-5.8l0-0.2h17.9c0-0.3,0-0.7,0-1.2c0-2-0.4-3.8-1.3-5.5c-0.9-1.6-2.1-2.9-3.7-3.9
				C317.2,246.3,315.5,245.8,313.6,245.8z M321,255.4h-15l0-0.2c0.3-2,1.2-3.6,2.5-4.9c1.3-1.3,3-2,5.1-2c2.1,0,3.8,0.6,5,1.7
				c1.2,1.1,2,2.9,2.3,5.2L321,255.4z M306.4,255.1h14.2c-0.3-2.1-1.1-3.7-2.2-4.8c-1.2-1.1-2.8-1.7-4.8-1.7c-2,0-3.6,0.6-4.8,1.9
				C307.5,251.7,306.7,253.3,306.4,255.1z"/>
		</g>
		<g id="XMLID_1283_">
			<path id="XMLID_1287_" d="M375.2,267.5c-1.6-0.9-2.8-2.2-3.6-3.8l2.8-1.4c1.1,2.4,3.4,3.7,6.7,3.7c1.6,0,2.9-0.3,4-0.9
				c1.1-0.6,1.6-1.5,1.6-2.7c0-1.3-0.4-2.2-1.3-2.8c-0.9-0.6-2.3-1-4.5-1.2c-3-0.2-5.1-0.9-6.4-2c-1.3-1.1-1.9-2.5-1.9-4.3
				c0-2,0.7-3.6,2.2-4.7c1.5-1.1,3.5-1.7,6-1.7c4.3,0,7.2,1.7,8.8,5.1l-2.8,1.4c-0.5-1.2-1.3-2.1-2.3-2.7c-1-0.6-2.3-0.9-3.9-0.9
				c-1.6,0-2.8,0.3-3.7,0.9c-0.8,0.6-1.3,1.4-1.3,2.5c0,1,0.5,1.8,1.4,2.5c0.9,0.6,2.5,1.1,4.7,1.2c2.8,0.2,4.8,0.9,6.2,2
				c1.3,1.1,2,2.5,2,4.3c0,1.5-0.4,2.7-1.3,3.7c-0.8,1-2,1.8-3.3,2.3c-1.4,0.5-2.9,0.8-4.5,0.8C378.7,268.8,376.8,268.4,375.2,267.5
				z"/>
			<path id="XMLID_1284_" d="M380.8,269c-2.1,0-4-0.5-5.6-1.4c-1.6-0.9-2.9-2.2-3.7-3.9l-0.1-0.1l3.1-1.5l0.1,0.2
				c1.1,2.4,3.3,3.6,6.6,3.6c1.6,0,2.9-0.3,3.9-0.9c1-0.5,1.5-1.4,1.5-2.6c0-1.2-0.4-2.1-1.2-2.7c-0.8-0.6-2.3-1-4.4-1.2
				c-3-0.2-5.2-0.9-6.5-2c-1.3-1.1-2-2.6-2-4.4c0-2.1,0.8-3.7,2.2-4.8c1.5-1.1,3.5-1.7,6.1-1.7c4.4,0,7.4,1.8,8.9,5.2l0.1,0.1
				l-3.1,1.5l-0.1-0.2c-0.5-1.2-1.2-2.1-2.2-2.7c-1-0.6-2.3-0.9-3.8-0.9c-1.6,0-2.8,0.3-3.6,0.9c-0.8,0.6-1.2,1.3-1.2,2.4
				c0,1,0.4,1.7,1.3,2.3c0.9,0.6,2.5,1,4.6,1.2c2.8,0.3,4.9,0.9,6.2,2.1c1.4,1.1,2.1,2.6,2.1,4.5c0,1.5-0.4,2.8-1.3,3.8
				c-0.8,1.1-2,1.9-3.4,2.4C383.9,268.7,382.4,269,380.8,269z M371.8,263.7c0.8,1.5,2,2.7,3.5,3.6l0,0c1.5,0.9,3.4,1.3,5.5,1.3
				c1.6,0,3.1-0.3,4.4-0.8c1.4-0.5,2.5-1.3,3.3-2.3c0.8-1,1.2-2.2,1.2-3.6c0-1.8-0.6-3.1-2-4.2c-1.3-1.1-3.3-1.7-6.1-2
				c-2.2-0.2-3.8-0.6-4.8-1.3c-1-0.7-1.4-1.5-1.4-2.6c0-1.1,0.5-2,1.3-2.6c0.9-0.6,2.2-0.9,3.8-0.9c1.6,0,2.9,0.3,4,0.9
				c1,0.6,1.8,1.5,2.3,2.6l2.5-1.2c-1.5-3.2-4.4-4.9-8.6-4.9c-2.5,0-4.5,0.6-5.9,1.6c-1.4,1.1-2.1,2.6-2.1,4.6
				c0,1.8,0.6,3.1,1.9,4.2c1.2,1.1,3.4,1.7,6.3,2c2.2,0.2,3.7,0.6,4.6,1.2c0.9,0.6,1.3,1.6,1.3,3c0,1.3-0.6,2.3-1.7,2.9
				c-1.1,0.6-2.4,0.9-4.1,0.9c-3.3,0-5.6-1.2-6.8-3.6L371.8,263.7z"/>
		</g>
		<g id="XMLID_1274_">
			<path id="XMLID_1280_" d="M440.7,241.4c-0.5-0.5-0.7-1.1-0.7-1.8c0-0.7,0.2-1.3,0.7-1.7c0.5-0.5,1.1-0.7,1.8-0.7
				c0.7,0,1.3,0.2,1.8,0.7c0.5,0.5,0.7,1.1,0.7,1.8c0,0.7-0.2,1.3-0.7,1.8c-0.5,0.5-1.1,0.7-1.8,0.7
				C441.8,242.1,441.2,241.9,440.7,241.4z M440.9,268.1v-21.7h3.2v21.7H440.9z"/>
			<path id="XMLID_1275_" d="M444.3,268.2h-3.5v-22h3.5V268.2z M441.1,267.9h2.8v-21.4h-2.8V267.9z M442.5,242.3
				c-0.7,0-1.4-0.3-1.9-0.8l0,0c-0.5-0.5-0.8-1.2-0.8-1.9c0-0.7,0.3-1.3,0.8-1.9c0.5-0.5,1.2-0.8,1.9-0.8c0.7,0,1.4,0.3,1.9,0.8
				c0.5,0.5,0.8,1.2,0.8,1.9c0,0.7-0.3,1.4-0.8,1.9C443.9,242,443.2,242.3,442.5,242.3z M440.9,241.3c0.5,0.5,1,0.7,1.7,0.7
				c0.6,0,1.2-0.2,1.6-0.7c0.5-0.5,0.7-1,0.7-1.7c0-0.7-0.2-1.2-0.7-1.7c-0.5-0.4-1-0.7-1.6-0.7c-0.7,0-1.2,0.2-1.7,0.7
				c-0.4,0.5-0.7,1-0.7,1.6C440.2,240.2,440.4,240.8,440.9,241.3z"/>
		</g>
		<g id="XMLID_1265_">
			<path id="XMLID_1271_" d="M516.4,246.4v20.9c0,2-0.4,3.7-1.2,5.2c-0.8,1.5-1.9,2.7-3.4,3.6c-1.5,0.9-3.1,1.3-5,1.3h-9v-2.9h9
				c1.9,0,3.4-0.7,4.6-2c1.2-1.4,1.8-3.1,1.8-5.2v-2.4c-0.9,1.2-2,2.2-3.3,2.9c-1.3,0.7-2.7,1-4.3,1c-2.1,0-3.9-0.5-5.6-1.5
				c-1.6-1-2.9-2.4-3.9-4.1c-0.9-1.8-1.4-3.8-1.4-6c0-2.2,0.5-4.2,1.4-6c0.9-1.7,2.2-3.1,3.8-4.1c1.6-1,3.5-1.5,5.5-1.5
				c1.6,0,3,0.3,4.3,1c1.3,0.7,2.4,1.7,3.3,3v-3.3H516.4z M509.6,264.8c1.2-0.7,2.1-1.8,2.7-3.1c0.6-1.3,1-2.8,1-4.5
				c0-1.7-0.3-3.2-1-4.5c-0.6-1.3-1.6-2.4-2.7-3.1c-1.2-0.7-2.5-1.1-4-1.1c-1.5,0-2.8,0.4-3.9,1.1c-1.1,0.7-2,1.8-2.7,3.1
				c-0.6,1.3-1,2.8-1,4.5c0,1.7,0.3,3.2,1,4.6c0.6,1.3,1.5,2.4,2.7,3.1c1.1,0.7,2.4,1.1,3.9,1.1
				C507.1,265.9,508.4,265.6,509.6,264.8z"/>
			<path id="XMLID_1266_" d="M506.9,277.5h-9.2v-3.2h9.2c1.8,0,3.3-0.7,4.5-2c1.2-1.3,1.8-3,1.8-5.1v-1.9c-0.9,1.1-1.9,1.9-3.1,2.6
				c-1.3,0.7-2.8,1.1-4.3,1.1c-2.1,0-4-0.5-5.6-1.5c-1.7-1-3-2.4-3.9-4.2c-0.9-1.8-1.4-3.8-1.4-6.1c0-2.2,0.5-4.3,1.4-6
				c0.9-1.8,2.2-3.2,3.9-4.2c1.7-1,3.5-1.5,5.6-1.5c1.6,0,3.1,0.4,4.4,1.1c1.2,0.6,2.2,1.5,3.1,2.6v-2.9h3.5v21c0,2-0.4,3.7-1.2,5.3
				c-0.8,1.5-2,2.8-3.4,3.7C510.4,277.1,508.7,277.5,506.9,277.5z M498,277.2h8.8c1.8,0,3.5-0.4,4.9-1.3c1.4-0.9,2.5-2,3.3-3.5
				c0.8-1.5,1.2-3.2,1.2-5.2v-20.7h-2.8v3.6l-0.3-0.4c-0.9-1.2-2-2.2-3.3-2.9c-1.3-0.7-2.7-1-4.3-1c-2,0-3.9,0.5-5.5,1.5
				c-1.6,1-2.9,2.3-3.7,4c-0.9,1.7-1.4,3.7-1.4,5.9c0,2.2,0.5,4.2,1.4,6c0.9,1.7,2.2,3.1,3.8,4.1c1.6,1,3.4,1.5,5.5,1.5
				c1.5,0,2.9-0.3,4.2-1c1.3-0.7,2.4-1.6,3.2-2.9l0.3-0.4v2.9c0,2.1-0.6,3.9-1.8,5.3c-1.2,1.4-2.8,2.1-4.7,2.1H498V277.2z
				 M505.6,266.1c-1.5,0-2.8-0.4-4-1.1c-1.2-0.8-2.1-1.8-2.8-3.2c-0.7-1.4-1-2.9-1-4.6c0-1.7,0.3-3.2,1-4.5c0.7-1.3,1.6-2.4,2.8-3.1
				c1.2-0.8,2.5-1.1,4-1.1c1.5,0,2.9,0.4,4.1,1.1c1.2,0.8,2.1,1.8,2.8,3.2c0.7,1.4,1,2.9,1,4.6c0,1.7-0.3,3.2-1,4.6
				c-0.7,1.3-1.6,2.4-2.8,3.2l0,0C508.5,265.7,507.1,266.1,505.6,266.1z M505.6,248.7c-1.4,0-2.7,0.4-3.8,1.1c-1.1,0.7-2,1.7-2.6,3
				c-0.6,1.3-1,2.8-1,4.4c0,1.7,0.3,3.2,1,4.5c0.6,1.3,1.5,2.3,2.6,3c1.1,0.7,2.4,1.1,3.8,1.1c1.5,0,2.7-0.4,3.9-1.1
				c1.1-0.7,2-1.7,2.7-3c0.6-1.3,1-2.8,1-4.4c0-1.7-0.3-3.1-1-4.4c-0.6-1.3-1.5-2.3-2.7-3C508.3,249,507.1,248.7,505.6,248.7z"/>
		</g>
		<g id="XMLID_1259_">
			<path id="XMLID_1263_" d="M581.4,246.5c1.3,0.6,2.3,1.5,3.1,2.7c0.8,1.2,1.1,2.6,1.1,4.3v14.5h-3.2v-13.1c0-4.3-1.9-6.5-5.8-6.5
				c-2.2,0-3.9,0.8-5,2.4c-1.1,1.6-1.7,3.7-1.7,6.4v10.9h-3.2v-21.7h3.2v3.6c0.7-1.4,1.7-2.5,3-3.2c1.2-0.8,2.6-1.1,4.2-1.1
				C578.7,245.6,580.1,245.9,581.4,246.5z"/>
			<path id="XMLID_1260_" d="M585.7,268.2h-3.5v-13.3c0-4.2-1.8-6.3-5.6-6.3c-2.2,0-3.8,0.8-4.9,2.3c-1.1,1.5-1.6,3.6-1.6,6.3v11
				h-3.5v-22h3.5v3.2c0.7-1.2,1.6-2.1,2.7-2.8c1.2-0.8,2.7-1.2,4.3-1.2c1.5,0,3,0.3,4.3,0.9l0,0c1.3,0.6,2.4,1.6,3.1,2.8
				c0.8,1.2,1.2,2.7,1.2,4.4V268.2z M582.6,267.9h2.8v-14.4c0-1.6-0.4-3-1.1-4.2c-0.7-1.2-1.7-2.1-3-2.7h0c-1.3-0.6-2.6-0.9-4.1-0.9
				c-1.6,0-3,0.4-4.2,1.1c-1.2,0.7-2.2,1.8-2.9,3.2l-0.3,0.6v-4.1H567v21.4h2.8v-10.7c0-2.7,0.6-4.9,1.7-6.5
				c1.1-1.6,2.9-2.4,5.1-2.4c3.9,0,5.9,2.2,5.9,6.6V267.9z"/>
		</g>
		<g id="XMLID_1250_">
			<path id="XMLID_1256_" d="M651,247.1c1.6,1,2.8,2.3,3.7,3.9c0.9,1.7,1.3,3.5,1.3,5.5c0,0.6,0,1-0.1,1.3h-17.9
				c0.1,2.2,0.9,4.1,2.2,5.7c1.3,1.6,3.1,2.4,5.4,2.4c1.9,0,3.4-0.3,4.6-1c1.2-0.7,2.2-1.7,2.9-2.9l2.5,1.7c-1,1.6-2.4,2.9-4,3.8
				c-1.7,0.9-3.6,1.4-5.9,1.4c-2.1,0-4-0.5-5.6-1.5c-1.6-1-2.9-2.4-3.9-4.1c-0.9-1.8-1.4-3.8-1.4-6c0-2.2,0.5-4.2,1.4-6
				c0.9-1.8,2.2-3.1,3.8-4.1c1.6-1,3.5-1.5,5.5-1.5C647.6,245.6,649.4,246.1,651,247.1z M652.9,255.3c-0.3-2.3-1.1-4-2.3-5.1
				c-1.2-1.1-2.9-1.7-4.9-1.7c-2,0-3.7,0.6-4.9,1.9c-1.3,1.3-2.1,2.9-2.4,4.8H652.9z"/>
			<path id="XMLID_1251_" d="M645.8,269c-2.1,0-4-0.5-5.7-1.5c-1.7-1-3-2.4-3.9-4.2c-0.9-1.8-1.4-3.8-1.4-6.1c0-2.3,0.5-4.3,1.4-6.1
				c0.9-1.8,2.2-3.2,3.9-4.2c1.6-1,3.5-1.5,5.6-1.5c2,0,3.8,0.5,5.4,1.5l0,0c1.6,1,2.9,2.3,3.8,4c0.9,1.7,1.4,3.6,1.4,5.6
				c0,0.6,0,1-0.1,1.4l0,0.1h-17.8c0.2,2.1,0.9,3.9,2.1,5.4c1.3,1.6,3,2.3,5.3,2.3c1.9,0,3.3-0.3,4.5-1c1.2-0.7,2.2-1.6,2.9-2.8
				l0.1-0.1l0.1,0.1l2.6,1.8l-0.1,0.1c-1,1.6-2.4,2.9-4.1,3.8C650.2,268.5,648.1,269,645.8,269z M645.7,245.8c-2,0-3.9,0.5-5.5,1.5
				c-1.6,1-2.9,2.3-3.7,4.1c-0.9,1.7-1.4,3.7-1.4,5.9c0,2.2,0.5,4.2,1.4,5.9c0.9,1.7,2.2,3.1,3.8,4.1c1.6,1,3.5,1.5,5.5,1.5
				c2.2,0,4.2-0.5,5.9-1.4c1.6-0.9,2.9-2.1,3.9-3.6l-2.2-1.5c-0.7,1.2-1.7,2.1-2.9,2.8c-1.2,0.7-2.8,1.1-4.7,1.1
				c-2.3,0-4.2-0.8-5.6-2.4c-1.3-1.6-2.1-3.5-2.2-5.8l0-0.2h17.9c0-0.2,0-0.6,0-1.2c0-2-0.4-3.8-1.3-5.5c-0.9-1.6-2.1-2.9-3.7-3.9
				C649.3,246.3,647.6,245.8,645.7,245.8z M653.1,255.4h-15l0-0.2c0.3-2,1.2-3.6,2.5-4.9c1.3-1.3,3-2,5.1-2c2.1,0,3.8,0.6,5,1.7
				c1.2,1.1,2,2.9,2.3,5.2L653.1,255.4z M638.5,255.1h14.2c-0.3-2.1-1.1-3.7-2.2-4.8c-1.2-1.1-2.8-1.7-4.8-1.7c-2,0-3.6,0.6-4.8,1.9
				C639.6,251.7,638.9,253.3,638.5,255.1z"/>
		</g>
		<g id="XMLID_1244_">
			<path id="XMLID_1248_" d="M718,245.9v2.9c-0.6-0.3-1.4-0.5-2.1-0.5c-1.3,0-2.6,0.4-3.7,1.1c-1.1,0.7-2.1,1.8-2.8,3.2
				c-0.7,1.4-1,3.1-1,5v10.4h-3.2v-21.7h3.2v4.4c0.8-1.6,1.9-2.9,3.2-3.8c1.3-0.9,2.7-1.3,4.3-1.3
				C716.7,245.6,717.4,245.7,718,245.9z"/>
			<path id="XMLID_1245_" d="M708.6,268.2h-3.5v-22h3.5v3.9c0.8-1.4,1.8-2.5,2.9-3.3c1.3-0.9,2.8-1.4,4.4-1.4c0.7,0,1.5,0.1,2.2,0.3
				l0.1,0v3.3L718,249c-0.6-0.3-1.3-0.5-2.1-0.5c-1.3,0-2.5,0.4-3.6,1.1c-1.1,0.7-2,1.8-2.7,3.2c-0.7,1.4-1,3-1,4.9V268.2z
				 M705.4,267.9h2.8v-10.2c0-1.9,0.4-3.6,1.1-5.1c0.7-1.4,1.6-2.5,2.8-3.3c1.2-0.8,2.5-1.1,3.8-1.1c0.7,0,1.4,0.1,2,0.4v-2.5
				c-0.6-0.2-1.3-0.3-2-0.3c-1.6,0-3,0.4-4.2,1.3c-1.3,0.9-2.3,2.1-3.1,3.7l-0.3,0.6v-4.9h-2.8V267.9z"/>
		</g>
	</g>
	<g id="XMLID_1226_">
		<path id="XMLID_1242_" d="M90.5,29.3H71.3v66.2h57.7v12.4H71.3v91.7h30.2v11H13.6v-11h16.5V29.3H13.6v-11h117.8c4,0,7,0.1,8.9,0.4
			c1.9,0.3,3.7,1.3,5.4,3c1.7,1.7,2.5,4.4,2.5,8.1L140.8,76H130l-5.5-27.2c-1.6-8.2-4.7-13.5-9.2-15.9
			C110.9,30.5,102.6,29.3,90.5,29.3z"/>
		<path id="XMLID_1239_" d="M216.7,113.2v76.5c0,3.5,0.9,6.3,2.6,8.4c1.7,2,4.3,3,7.9,3c3.5,0,7.6-1.9,12.2-5.7l3.5,4.7
			c-10.5,9.6-21,14.4-31.5,14.4c-12.5,0-20.1-5.8-23-17.5c-6.8,11.7-16.9,17.5-30.1,17.5c-15.1,0-26.6-4.9-34.4-14.7
			c-7.9-9.8-11.8-22.2-11.8-37.4c0-15.1,4.2-27.6,12.7-37.5c8.5-9.8,20.3-14.8,35.5-14.8c11.7,0,20.7,4.7,27,14v-11H216.7z
			 M148,132.4c-3.7,7.3-5.5,17.3-5.5,29.9c0,12.6,1.8,22.6,5.5,29.9c3.7,7.3,9.3,11,16.8,11c7.5,0,13.3-3.7,17.3-11.1
			c4-7.4,6-17.3,6-29.8c0-12.5-2-22.4-6-29.8c-4-7.4-9.8-11.1-17.3-11.1C157.3,121.4,151.7,125.1,148,132.4z"/>
		<path id="XMLID_1237_" d="M258.6,129.3c-3.1-4.9-4.7-9.2-4.7-13c0-3.8,1.5-7.2,4.4-10.1c3-3,6.5-4.4,10.7-4.4
			c4.2,0,7.8,1.5,10.7,4.4c3,2.9,4.4,6.5,4.4,10.5c0,4.1-2,8.4-6.1,13c10.8,7.9,19,15.6,24.8,23.1c5.8,7.5,8.7,16.3,8.7,26.2
			c0,9.9-3.7,18.3-11.2,25.2c-7.5,6.9-18.1,10.3-31.9,10.3c-6.3,0-12.6-1.4-19-4.1c-6.4-2.8-11.2-6.2-14.5-10.2l4.5-4.7
			c5.8,4.6,12,6.9,18.7,6.9c6.7,0,12.2-1.8,16.4-5.4c4.3-3.6,6.4-9.2,6.4-16.8c0-12.1-4.5-24.7-13.4-37.8l-29.7,37.2l-4.9-4.3
			C242.9,159,251.5,143.7,258.6,129.3z"/>
		<path id="XMLID_1235_" d="M352.1,73v50.6c4.6-5,9.5-8.5,14.9-10.4c5.3-2,12.1-2.9,20.3-2.9c8.2,0,14.9,2.6,20.1,7.8
			c5.2,5.2,7.8,12.2,7.8,21.1v50.6c0,3.5,0.9,6.3,2.6,8.4c1.7,2,4.3,3,7.9,3c3.5,0,7.6-1.9,12.2-5.7l3.5,4.7
			c-10.5,9.6-21,14.4-31.5,14.4c-16.1,0-24.2-9.6-24.2-28.9V135c0-4.1-1.2-7.2-3.7-9.4c-2.5-2.2-6-3.3-10.4-3.3
			c-4.5,0-8.8,1.8-13,5.5c-4.2,3.7-6.3,8.5-6.3,14.4v69.5h-29.5V70.5c-7.2,1.8-12.7,5.1-16.5,9.6l-5.3-6.1c3.8-3.9,8.6-7.1,14.5-9.4
			c5.8-2.4,11.6-3.5,17.3-3.5s10.4,1.1,14.1,3.4C350.3,66.8,352.1,69.6,352.1,73z"/>
		<path id="XMLID_1232_" d="M459.4,110.2c12.3,0,18.5,5.3,18.5,15.9v63.5c0,3.5,0.9,6.3,2.6,8.4c1.7,2,4.3,3,7.9,3
			c3.5,0,7.6-1.9,12.2-5.7l3.5,4.7c-10.5,9.6-21,14.4-31.5,14.4c-16.1,0-24.2-9.6-24.2-28.9v-65.9c-7.2,1.8-12.7,5-16.5,9.6
			l-5.3-6.1c3.8-3.9,8.6-7.1,14.5-9.4C446.8,111.4,453,110.2,459.4,110.2z M452,90.8c-3.1-3.1-4.6-6.8-4.6-11.1
			c0-4.3,1.5-8,4.6-11.1c3.1-3.1,6.8-4.6,11.1-4.6s8,1.5,11.1,4.6c3.1,3.1,4.6,6.8,4.6,11.1c0,4.3-1.5,8-4.6,11.1
			c-3.1,3.1-6.8,4.6-11.1,4.6S455.1,93.9,452,90.8z"/>
		<path id="XMLID_1229_" d="M516,199.4c-9.6-10-14.5-22.4-14.5-37.1c0-14.7,4.8-27.1,14.5-37.1c9.6-10,22.2-15,37.7-15
			c15.5,0,28,5,37.7,15c9.6,10,14.5,22.4,14.5,37.1c0,14.7-4.8,27.1-14.5,37.1c-9.6,10-22.2,15.1-37.7,15.1
			C538.2,214.5,525.7,209.5,516,199.4z M537.6,130.8c-3.7,8.2-5.5,18.7-5.5,31.6c0,12.9,1.8,23.4,5.5,31.6
			c3.7,8.2,9.1,12.3,16.3,12.3c7.2,0,12.7-4.1,16.3-12.3c3.7-8.2,5.5-18.7,5.5-31.6c0-12.9-1.8-23.4-5.5-31.6
			c-3.7-8.2-9.1-12.3-16.3-12.3C546.7,118.5,541.3,122.6,537.6,130.8z"/>
		<path id="XMLID_1227_" d="M624.4,113.2c10.8,0,20.5,3.3,29.1,9.8c5-4.7,10.1-8,15.3-9.9c5.2-1.9,12-2.9,20.2-2.9
			c8.2,0,14.9,2.6,20.1,7.8c5.2,5.2,7.8,12.2,7.8,21.1v50.6c0,3.5,0.9,6.3,2.6,8.4c1.7,2,4.3,3,7.9,3c3.5,0,7.6-1.9,12.2-5.7
			l3.5,4.7c-10.5,9.6-21,14.4-31.5,14.4c-16.1,0-24.2-9.6-24.2-28.9V135c0-4.1-1.2-7.2-3.7-9.4c-2.5-2.2-5.9-3.3-10.3-3.3
			c-4.4,0-8.7,1.8-13,5.3c-4.3,3.5-6.4,8.1-6.4,13.8v70.2h-29.5V121c-5.9,0-11.1,1-15.7,2.9l-2.8-7.3
			C611.5,114.3,617.7,113.2,624.4,113.2z"/>
	</g>
	<rect id="XMLID_7337_" x="13.6" y="243.1" width="169" height="18.3"/>
</g>
</svg>
